# xmcd
#
# Track frame offsets:
#	150
#	13647
#	26856
#	36614
#	48898
#	60215
#	72761
#	87284
#	94922
#	107289
#	120190
#	129449
#	139374
#	153894
#	165089
#	177637
#	196492
#	206923
#
# Disc length: 2855 seconds
#
# Revision: 1
# Processed by: cddbd v1.5.2PL0 Copyright (c) Steve Scherf et al.
# Submitted via: EZCDAudioConverter 7.0.6.1
#
DISCID=ed0b2512
DTITLE=The Deep - Psychedelic Moods
DYEAR=1966
DGENRE=
TTITLE0=Color Dreams
TTITLE1=Pink Ether
TTITLE2=When Rain Is Black
TTITLE3=It's All A Part Of Me
TTITLE4=Turned On
TTITLE5=Psychedelic Moon
TTITLE6=Shadows On The Wall
TTITLE7=Crystal Nite
TTITLE8=Trip #76
TTITLE9=Wake Up And Find Me
TTITLE10=Your Choice To Choose
TTITLE11=On Off-Off On
TTITLE12=Psychedelic Moon [Alternate Version]
TTITLE13=Trip #76 [Take 3]
TTITLE14=Trip #76 [Take 4]
TTITLE15=Your Choice To Choose [Takes 1-4]
TTITLE16=When Rain Is Black [Alternate Version]
TTITLE17=Black, White and Gray ['When Rain Is Black' Demo]
EXTD=
EXTT0=
EXTT1=
EXTT2=
EXTT3=
EXTT4=
EXTT5=
EXTT6=
EXTT7=
EXTT8=
EXTT9=
EXTT10=
EXTT11=
EXTT12=
EXTT13=
EXTT14=
EXTT15=
EXTT16=
EXTT17=
PLAYORDER=
